<?xml version="1.0" encoding="UTF-8"?>
<svg id="Layer_2" xmlns="http://www.w3.org/2000/svg" viewBox="0 0 323 245.2">
  <defs>
    <style>
      .cls-1, .cls-2 {
        fill-rule: evenodd;
      }

      .cls-2 {
        fill: #ed1c24;
      }
    </style>
  </defs>
  <polygon class="cls-1" points="234.59 0 280.57 0 280.57 198.88 323 198.88 323 245 234.59 245 234.59 0"/>
  <path class="cls-1" d="M186.97,19.01C174.37,6.44,158.82,0,141.02,0s-33.35,6.44-45.95,19.01c-12.6,12.57-19.06,28.08-19.06,45.83v115.31c0,17.76,6.46,33.26,19.06,45.83,12.6,12.57,28.15,19.01,45.95,19.01s33.35-6.44,45.95-19.01c12.6-12.57,19.06-28.08,19.06-45.83v-115.31c0-17.76-6.46-33.26-19.06-45.83ZM158.93,180.16c0,5.22-1.72,9.4-5.54,13.2-3.78,3.77-8.01,5.52-13.39,5.52s-9.61-1.75-13.39-5.52c-3.82-3.8-5.54-7.98-5.54-13.2v-115.31c0-5.37,1.75-9.58,5.54-13.35,3.78-3.77,8.01-5.52,13.39-5.52s9.61,1.75,13.39,5.52c3.78,3.77,5.54,7.99,5.54,13.35v115.31Z"/>
  <path class="cls-1" d="M47.44,245.2H0v-76.7L47.44,61v184.2Z"/>
  <path class="cls-2" d="M0,.13h46L0,103V.13Z"/>
</svg>